<svg width="300" height="40" viewBox="0 0 300 40" fill="none" xmlns="http://www.w3.org/2000/svg">
<path d="M100.306 26H105.61V24.765H101.684V17.42H100.306V26ZM106.451 22.802C106.412 24.609 107.985 26.182 109.818 26.143C111.677 26.182 113.25 24.609 113.211 22.802C113.25 20.995 111.677 19.435 109.818 19.474C107.985 19.448 106.412 20.969 106.451 22.802ZM111.807 22.815C111.807 23.972 110.949 24.882 109.818 24.882C108.7 24.882 107.842 23.998 107.842 22.815C107.842 21.632 108.7 20.722 109.831 20.722C110.936 20.722 111.807 21.632 111.807 22.815ZM119.781 19.617V20.527C119.313 19.864 118.494 19.474 117.519 19.474C115.751 19.474 114.412 20.813 114.412 22.672C114.412 24.531 115.738 25.87 117.519 25.87C118.403 25.87 119.196 25.545 119.677 24.96V25.415C119.677 26.611 118.923 27.235 117.766 27.235C116.895 27.235 116.245 26.897 115.53 26.325L114.776 27.274C115.543 27.989 116.583 28.483 117.844 28.483C119.781 28.483 121.042 27.352 121.042 25.337V19.617H119.781ZM119.69 22.659C119.69 23.309 119.495 23.803 119.118 24.154C118.741 24.505 118.299 24.674 117.766 24.674C117.207 24.674 116.752 24.492 116.375 24.128C115.998 23.751 115.816 23.27 115.816 22.672C115.816 22.087 115.998 21.606 116.375 21.242C116.752 20.878 117.207 20.696 117.766 20.696C118.819 20.696 119.69 21.359 119.69 22.659ZM123.015 26H124.38V19.617H123.015V26ZM122.768 17.238C122.768 17.745 123.184 18.135 123.704 18.135C124.211 18.135 124.627 17.745 124.627 17.238C124.627 16.731 124.211 16.328 123.704 16.328C123.184 16.328 122.768 16.731 122.768 17.238ZM131.931 22.009C131.931 20.488 131.034 19.474 129.539 19.474C128.746 19.474 128.109 19.734 127.628 20.241V19.617H126.354V26H127.719V22.191C127.719 21.32 128.33 20.709 129.175 20.709C130.007 20.709 130.566 21.307 130.566 22.191V26H131.931V22.009ZM145.493 19.617L143.842 23.738L141.879 19.474H141.411L139.474 23.79L137.797 19.617H136.341L139.175 26.143H139.643L141.645 21.892L143.647 26.143H144.115L146.949 19.617H145.493ZM148.177 26H149.542V19.617H148.177V26ZM147.93 17.238C147.93 17.745 148.346 18.135 148.866 18.135C149.373 18.135 149.789 17.745 149.789 17.238C149.789 16.731 149.373 16.328 148.866 16.328C148.346 16.328 147.93 16.731 147.93 17.238ZM155.312 24.843C154.935 24.882 154.662 24.908 154.467 24.908C153.635 24.908 153.206 24.622 153.206 23.803V20.8H155.104V19.617H153.206V17.94H151.828V19.617H150.788V20.8H151.828V23.92C151.828 25.415 152.712 26.143 154.181 26.143C154.506 26.143 154.883 26.091 155.312 26V24.843ZM162.273 22.009C162.273 20.501 161.363 19.474 159.907 19.474C159.14 19.474 158.49 19.747 158.061 20.254V16.25H156.696V26H158.061V22.204C158.061 21.333 158.672 20.722 159.517 20.722C160.362 20.722 160.908 21.32 160.908 22.204V26H162.273V22.009ZM167.908 26H169.286V22.464H172.692V21.216H169.286V18.655H173.42V17.42H167.908V26ZM179.425 22.139C179.425 20.423 178.385 19.474 176.812 19.474C175.707 19.474 174.758 19.916 174.121 20.839L174.914 21.645C175.447 21.008 175.967 20.696 176.682 20.696C177.553 20.696 178.047 21.177 178.047 22.061V22.477H176.24C174.797 22.477 173.887 23.192 173.887 24.297C173.887 25.402 174.771 26.143 176.11 26.143C176.981 26.143 177.683 25.844 178.151 25.285V26H179.425V22.139ZM178.047 23.582C178.047 24.453 177.319 25.09 176.396 25.09C175.733 25.09 175.278 24.778 175.278 24.245C175.278 23.725 175.681 23.465 176.409 23.465H178.047V23.582ZM180.922 22.802C180.922 24.661 182.417 26.143 184.302 26.143C185.459 26.143 186.421 25.584 186.993 24.661L186.031 23.92C185.563 24.557 184.991 24.882 184.315 24.882C183.171 24.882 182.313 23.972 182.313 22.802C182.313 21.645 183.171 20.735 184.315 20.735C185.004 20.735 185.576 21.06 186.031 21.71L186.993 20.956C186.434 20.033 185.485 19.474 184.302 19.474C182.469 19.448 180.883 20.969 180.922 22.802ZM194.117 23.257C194.182 22.958 194.221 22.672 194.221 22.399C194.221 20.735 192.96 19.474 191.27 19.474C189.463 19.435 187.929 20.982 187.968 22.815C187.968 24.7 189.45 26.143 191.4 26.143C192.375 26.143 193.22 25.805 193.948 25.116L193.298 24.18C192.726 24.687 192.102 24.934 191.439 24.934C190.347 24.934 189.528 24.297 189.359 23.257H194.117ZM189.385 22.191C189.593 21.242 190.321 20.631 191.218 20.631C192.115 20.631 192.843 21.216 192.856 22.191H189.385ZM202.415 22.815C202.415 20.917 201.089 19.474 199.282 19.474C198.398 19.474 197.631 19.812 197.15 20.397V16.25H195.785V26H197.059V25.116C197.54 25.779 198.359 26.143 199.295 26.143C201.076 26.143 202.415 24.7 202.415 22.815ZM201.011 22.802C201.011 24.024 200.166 24.895 199.061 24.895C198.06 24.895 197.137 24.206 197.137 22.815C197.137 21.411 198.06 20.722 199.061 20.722C200.153 20.722 201.011 21.58 201.011 22.802ZM203.583 22.802C203.544 24.609 205.117 26.182 206.95 26.143C208.809 26.182 210.382 24.609 210.343 22.802C210.382 20.995 208.809 19.435 206.95 19.474C205.117 19.448 203.544 20.969 203.583 22.802ZM208.939 22.815C208.939 23.972 208.081 24.882 206.95 24.882C205.832 24.882 204.974 23.998 204.974 22.815C204.974 21.632 205.832 20.722 206.963 20.722C208.068 20.722 208.939 21.632 208.939 22.815ZM211.505 22.802C211.466 24.609 213.039 26.182 214.872 26.143C216.731 26.182 218.304 24.609 218.265 22.802C218.304 20.995 216.731 19.435 214.872 19.474C213.039 19.448 211.466 20.969 211.505 22.802ZM216.861 22.815C216.861 23.972 216.003 24.882 214.872 24.882C213.754 24.882 212.896 23.998 212.896 22.815C212.896 21.632 213.754 20.722 214.885 20.722C215.99 20.722 216.861 21.632 216.861 22.815ZM219.83 26H221.195V16.25H219.83V26ZM222.846 22.425L225.42 19.617H223.73L221.234 22.412L224.003 26H225.641L222.846 22.425Z" fill="#727272"/>
<g clip-path="url(#clip0_0_1)">
<path d="M88.3309 14.3208H90.1567V11.1408C89.8417 11.0975 88.7584 11 87.4967 11C81.7201 11 83.2917 17.5417 83.0617 18.5H80.1559V22.055H83.0609V31H86.6226V22.0558H89.4101L89.8526 18.5008H86.6217C86.7784 16.1475 85.9876 14.3208 88.3309 14.3208Z" fill="#3B5999"/>
</g>
<rect x="0.5" y="0.5" width="299" height="39" rx="4.5" stroke="#EAEAEA"/>
<defs>
<clipPath id="clip0_0_1">
<rect width="20" height="20" fill="white" transform="translate(75 11)"/>
</clipPath>
</defs>
</svg>
