<svg width="300" height="40" viewBox="0 0 300 40" fill="none" xmlns="http://www.w3.org/2000/svg">
<rect x="0.5" y="0.5" width="299" height="39" rx="4.5" stroke="#EAEAEA"/>
<path d="M110.51 25H115.814V23.765H111.888V16.42H110.51V25ZM116.656 21.802C116.617 23.609 118.19 25.182 120.023 25.143C121.882 25.182 123.455 23.609 123.416 21.802C123.455 19.995 121.882 18.435 120.023 18.474C118.19 18.448 116.617 19.969 116.656 21.802ZM122.012 21.815C122.012 22.972 121.154 23.882 120.023 23.882C118.905 23.882 118.047 22.998 118.047 21.815C118.047 20.632 118.905 19.722 120.036 19.722C121.141 19.722 122.012 20.632 122.012 21.815ZM129.986 18.617V19.527C129.518 18.864 128.699 18.474 127.724 18.474C125.956 18.474 124.617 19.813 124.617 21.672C124.617 23.531 125.943 24.87 127.724 24.87C128.608 24.87 129.401 24.545 129.882 23.96V24.415C129.882 25.611 129.128 26.235 127.971 26.235C127.1 26.235 126.45 25.897 125.735 25.325L124.981 26.274C125.748 26.989 126.788 27.483 128.049 27.483C129.986 27.483 131.247 26.352 131.247 24.337V18.617H129.986ZM129.895 21.659C129.895 22.309 129.7 22.803 129.323 23.154C128.946 23.505 128.504 23.674 127.971 23.674C127.412 23.674 126.957 23.492 126.58 23.128C126.203 22.751 126.021 22.27 126.021 21.672C126.021 21.087 126.203 20.606 126.58 20.242C126.957 19.878 127.412 19.696 127.971 19.696C129.024 19.696 129.895 20.359 129.895 21.659ZM133.22 25H134.585V18.617H133.22V25ZM132.973 16.238C132.973 16.745 133.389 17.135 133.909 17.135C134.416 17.135 134.832 16.745 134.832 16.238C134.832 15.731 134.416 15.328 133.909 15.328C133.389 15.328 132.973 15.731 132.973 16.238ZM142.136 21.009C142.136 19.488 141.239 18.474 139.744 18.474C138.951 18.474 138.314 18.734 137.833 19.241V18.617H136.559V25H137.924V21.191C137.924 20.32 138.535 19.709 139.38 19.709C140.212 19.709 140.771 20.307 140.771 21.191V25H142.136V21.009ZM155.697 18.617L154.046 22.738L152.083 18.474H151.615L149.678 22.79L148.001 18.617H146.545L149.379 25.143H149.847L151.849 20.892L153.851 25.143H154.319L157.153 18.617H155.697ZM158.382 25H159.747V18.617H158.382V25ZM158.135 16.238C158.135 16.745 158.551 17.135 159.071 17.135C159.578 17.135 159.994 16.745 159.994 16.238C159.994 15.731 159.578 15.328 159.071 15.328C158.551 15.328 158.135 15.731 158.135 16.238ZM165.517 23.843C165.14 23.882 164.867 23.908 164.672 23.908C163.84 23.908 163.411 23.622 163.411 22.803V19.8H165.309V18.617H163.411V16.94H162.033V18.617H160.993V19.8H162.033V22.92C162.033 24.415 162.917 25.143 164.386 25.143C164.711 25.143 165.088 25.091 165.517 25V23.843ZM172.478 21.009C172.478 19.501 171.568 18.474 170.112 18.474C169.345 18.474 168.695 18.747 168.266 19.254V15.25H166.901V25H168.266V21.204C168.266 20.333 168.877 19.722 169.722 19.722C170.567 19.722 171.113 20.32 171.113 21.204V25H172.478V21.009ZM177.593 20.71C177.554 23.167 179.608 25.182 182.117 25.143C183.846 25.143 185.354 24.246 186.121 22.881V20.463H182.104V21.685H184.743V22.608C184.21 23.427 183.313 23.908 182.182 23.908C180.336 23.908 179.023 22.53 179.023 20.697C179.023 18.89 180.297 17.538 182.104 17.538C183.17 17.538 184.028 17.993 184.665 18.89L185.666 18.071C184.847 16.927 183.612 16.277 182.117 16.277C179.634 16.238 177.541 18.253 177.593 20.71ZM187.318 21.802C187.279 23.609 188.852 25.182 190.685 25.143C192.544 25.182 194.117 23.609 194.078 21.802C194.117 19.995 192.544 18.435 190.685 18.474C188.852 18.448 187.279 19.969 187.318 21.802ZM192.674 21.815C192.674 22.972 191.816 23.882 190.685 23.882C189.567 23.882 188.709 22.998 188.709 21.815C188.709 20.632 189.567 19.722 190.698 19.722C191.803 19.722 192.674 20.632 192.674 21.815ZM195.24 21.802C195.201 23.609 196.774 25.182 198.607 25.143C200.466 25.182 202.039 23.609 202 21.802C202.039 19.995 200.466 18.435 198.607 18.474C196.774 18.448 195.201 19.969 195.24 21.802ZM200.596 21.815C200.596 22.972 199.738 23.882 198.607 23.882C197.489 23.882 196.631 22.998 196.631 21.815C196.631 20.632 197.489 19.722 198.62 19.722C199.725 19.722 200.596 20.632 200.596 21.815ZM208.57 18.617V19.527C208.102 18.864 207.283 18.474 206.308 18.474C204.54 18.474 203.201 19.813 203.201 21.672C203.201 23.531 204.527 24.87 206.308 24.87C207.192 24.87 207.985 24.545 208.466 23.96V24.415C208.466 25.611 207.712 26.235 206.555 26.235C205.684 26.235 205.034 25.897 204.319 25.325L203.565 26.274C204.332 26.989 205.372 27.483 206.633 27.483C208.57 27.483 209.831 26.352 209.831 24.337V18.617H208.57ZM208.479 21.659C208.479 22.309 208.284 22.803 207.907 23.154C207.53 23.505 207.088 23.674 206.555 23.674C205.996 23.674 205.541 23.492 205.164 23.128C204.787 22.751 204.605 22.27 204.605 21.672C204.605 21.087 204.787 20.606 205.164 20.242C205.541 19.878 205.996 19.696 206.555 19.696C207.608 19.696 208.479 20.359 208.479 21.659ZM211.804 25H213.169V15.25H211.804V25ZM220.889 22.257C220.954 21.958 220.993 21.672 220.993 21.399C220.993 19.735 219.732 18.474 218.042 18.474C216.235 18.435 214.701 19.982 214.74 21.815C214.74 23.7 216.222 25.143 218.172 25.143C219.147 25.143 219.992 24.805 220.72 24.116L220.07 23.18C219.498 23.687 218.874 23.934 218.211 23.934C217.119 23.934 216.3 23.297 216.131 22.257H220.889ZM216.157 21.191C216.365 20.242 217.093 19.631 217.99 19.631C218.887 19.631 219.615 20.216 219.628 21.191H216.157Z" fill="#727272"/>
<g clip-path="url(#clip0_0_1)">
<path d="M95.4336 27.6055C93.6992 29.0703 91.4493 30 89 30C85.3555 30 82.1562 27.9922 80.4219 25.0625L81.0712 22.0695L83.9492 21.5352C84.6172 23.6914 86.6328 25.2734 89 25.2734C90.1484 25.2734 91.2148 24.9102 92.0938 24.2656L94.8594 24.6875L95.4336 27.6055Z" fill="#59C36A"/>
<path d="M95.4336 27.6055L94.8594 24.6875L92.0937 24.2656C91.2148 24.9102 90.1484 25.2734 89 25.2734V30C91.4493 30 93.6992 29.0703 95.4336 27.6055Z" fill="#00A66C"/>
<path d="M83.7266 20C83.7266 20.539 83.8086 21.0546 83.9492 21.5352L80.4219 25.0625C79.543 23.5859 79 21.8515 79 20C79 18.1484 79.543 16.4141 80.4219 14.9375L83.2529 15.4247L83.9492 18.4648C83.8086 18.9453 83.7266 19.4609 83.7266 20Z" fill="#FFDA2D"/>
<path d="M99 20C99 23.0468 97.5899 25.7773 95.4336 27.6055L92.0938 24.2656C92.7734 23.7734 93.3477 23.1171 93.7227 22.3437H89C88.6718 22.3437 88.4141 22.0859 88.4141 21.7578V18.2422C88.4141 17.914 88.6718 17.6562 89 17.6562H98.25C98.5312 17.6562 98.7773 17.8554 98.8242 18.1367C98.9414 18.7461 99 19.3789 99 20Z" fill="#4086F4"/>
<path d="M93.7227 22.3437C93.3477 23.1171 92.7734 23.7734 92.0938 24.2656L95.4336 27.6055C97.5899 25.7773 99 23.0469 99 20C99 19.3789 98.9414 18.7461 98.8242 18.1367C98.7773 17.8554 98.5312 17.6562 98.25 17.6562H89V22.3437H93.7227Z" fill="#4175DF"/>
<path d="M95.5977 12.7929C95.6094 12.957 95.5391 13.1094 95.4336 13.2265L92.9258 15.7226C92.7266 15.9336 92.3985 15.957 92.1641 15.7812C91.2382 15.0898 90.1484 14.7266 89 14.7266C86.6328 14.7266 84.6172 16.3086 83.9492 18.4648L80.4219 14.9375C82.1562 12.0078 85.3555 10 89 10C91.332 10 93.6055 10.8594 95.3867 12.3593C95.5156 12.4648 95.5859 12.6289 95.5977 12.7929Z" fill="#FF641A"/>
<path d="M92.1641 15.7812C92.3984 15.957 92.7265 15.9336 92.9257 15.7226L95.4336 13.2265C95.5391 13.1094 95.6094 12.957 95.5976 12.7929C95.5859 12.6288 95.5156 12.4648 95.3867 12.3593C93.6055 10.8594 91.332 10 89 10V14.7266C90.1484 14.7266 91.2382 15.0898 92.1641 15.7812Z" fill="#F03800"/>
</g>
<defs>
<clipPath id="clip0_0_1">
<rect width="20" height="20" fill="white" transform="translate(79 10)"/>
</clipPath>
</defs>
</svg>
