<svg width="300" height="13" viewBox="0 0 300 13" fill="none" xmlns="http://www.w3.org/2000/svg">
<path d="M111.624 5.71C111.572 8.141 113.639 10.195 116.07 10.143C118.475 10.182 120.581 8.167 120.529 5.71C120.581 3.253 118.475 1.238 116.07 1.277C113.639 1.238 111.572 3.253 111.624 5.71ZM119.476 5.697C119.515 7.66 117.968 9.233 116.083 9.207C114.146 9.207 112.677 7.686 112.677 5.697C112.677 3.708 114.146 2.213 116.083 2.213C117.968 2.174 119.515 3.76 119.476 5.697ZM125.628 3.669C125.459 3.63 125.303 3.617 125.16 3.617C124.393 3.617 123.652 3.955 123.197 4.566V3.669H122.261V10H123.262V6.412C123.262 5.242 124.185 4.553 125.251 4.553H125.628V3.669ZM130.615 10H131.616V0.249999H130.615V10ZM133.359 6.828C133.333 8.609 134.854 10.169 136.661 10.13C138.468 10.169 140.028 8.609 139.989 6.828C140.028 5.021 138.481 3.5 136.674 3.526C134.867 3.487 133.32 5.021 133.359 6.828ZM138.962 6.841C138.962 8.167 137.948 9.207 136.661 9.207C135.374 9.207 134.386 8.167 134.386 6.841C134.386 5.476 135.374 4.449 136.674 4.449C137.961 4.449 138.962 5.476 138.962 6.841ZM146.884 3.669V4.683C146.403 3.955 145.48 3.526 144.479 3.526C142.698 3.526 141.372 4.917 141.372 6.737C141.372 8.57 142.698 9.935 144.479 9.935C145.428 9.935 146.325 9.545 146.832 8.882V9.441C146.832 10.806 146.039 11.56 144.726 11.56C143.777 11.56 143.075 11.183 142.36 10.559L141.775 11.261C142.49 11.976 143.517 12.483 144.752 12.483C146.624 12.483 147.833 11.313 147.833 9.389V3.669H146.884ZM146.845 6.737C146.845 8.271 145.792 9.012 144.635 9.012C143.348 9.012 142.386 8.089 142.386 6.75C142.386 5.424 143.348 4.475 144.635 4.475C145.779 4.475 146.845 5.216 146.845 6.737ZM150.026 10H151.027V3.669H150.026V10ZM149.779 1.251C149.779 1.667 150.117 1.979 150.533 1.979C150.949 1.979 151.274 1.667 151.274 1.251C151.274 0.847999 150.936 0.523 150.533 0.523C150.117 0.523 149.779 0.847999 149.779 1.251ZM158.464 6.022C158.464 4.527 157.58 3.526 156.111 3.526C155.318 3.526 154.629 3.825 154.161 4.345V3.669H153.225V10H154.226V6.139C154.226 5.151 154.915 4.449 155.89 4.449C156.865 4.449 157.463 5.138 157.463 6.139V10H158.464V6.022ZM172.379 3.669L170.585 8.323L168.453 3.526H168.076L165.97 8.362L164.137 3.669H163.071L165.762 10.143H166.113L168.258 5.359L170.416 10.143H170.78L173.445 3.669H172.379ZM174.896 10H175.897V3.669H174.896V10ZM174.649 1.251C174.649 1.667 174.987 1.979 175.403 1.979C175.819 1.979 176.144 1.667 176.144 1.251C176.144 0.847999 175.806 0.523 175.403 0.523C174.987 0.523 174.649 0.847999 174.649 1.251ZM181.553 9.155C181.228 9.207 180.955 9.233 180.708 9.233C179.837 9.233 179.369 8.921 179.369 8.024V4.566H181.345V3.669H179.369V1.94H178.368V3.669H177.302V4.566H178.368V8.089C178.368 9.48 179.187 10.143 180.5 10.143C180.799 10.143 181.15 10.091 181.553 10V9.155ZM188.285 6.022C188.285 4.527 187.401 3.526 185.945 3.526C185.152 3.526 184.476 3.851 184.047 4.384V0.249999H183.046V10H184.047V6.152C184.047 5.164 184.736 4.449 185.711 4.449C186.686 4.449 187.284 5.125 187.284 6.152V10H188.285V6.022Z" fill="#3D3D3D"/>
<line y1="6.5" x2="101" y2="6.5" stroke="#EAEAEA"/>
<line x1="200" y1="6.5" x2="300" y2="6.50001" stroke="#EAEAEA"/>
</svg>
